<svg xmlns="http://www.w3.org/2000/svg" viewBox="0 0 600 300" width="600" height="300">
  <defs>
    <linearGradient id="bg2" x1="0%" y1="0%" x2="100%" y2="100%">
      <stop offset="0%" stop-color="#042f2e"/>
      <stop offset="100%" stop-color="#065f46"/>
    </linearGradient>
  </defs>
  <rect width="600" height="300" fill="url(#bg2)"/>
  <!-- Map regions (stylized Peru departments) -->
  <g opacity="0.18" fill="#34d399">
    <rect x="80" y="60" width="55" height="40" rx="4"/>
    <rect x="145" y="55" width="65" height="50" rx="4"/>
    <rect x="75" y="108" width="50" height="55" rx="4"/>
    <rect x="135" y="113" width="70" height="45" rx="4"/>
    <rect x="215" y="60" width="50" height="95" rx="4"/>
    <rect x="80" y="171" width="80" height="40" rx="4"/>
    <rect x="170" y="166" width="90" height="45" rx="4"/>
  </g>
  <!-- Color scale legend -->
  <defs>
    <linearGradient id="scale" x1="0%" y1="0%" x2="100%" y2="0%">
      <stop offset="0%" stop-color="#6ee7b7"/>
      <stop offset="50%" stop-color="#059669"/>
      <stop offset="100%" stop-color="#064e3b"/>
    </linearGradient>
  </defs>
  <rect x="80" y="225" width="180" height="10" rx="5" fill="url(#scale)" opacity="0.8"/>
  <text x="80" y="247" font-family="Inter,sans-serif" font-size="9" fill="#6ee7b7" opacity="0.7">Bajo</text>
  <text x="260" y="247" font-family="Inter,sans-serif" font-size="9" fill="#6ee7b7" opacity="0.7" text-anchor="end">Alto</text>
  <!-- Data points / markers -->
  <circle cx="110" cy="82" r="6" fill="#34d399" opacity="0.85"/>
  <circle cx="175" cy="78" r="9" fill="#059669" opacity="0.9"/>
  <circle cx="148" cy="138" r="7" fill="#047857" opacity="0.85"/>
  <circle cx="200" cy="145" r="10" fill="#065f46" opacity="0.9"/>
  <circle cx="235" cy="95" r="7" fill="#059669" opacity="0.8"/>
  <circle cx="100" cy="190" r="8" fill="#34d399" opacity="0.8"/>
  <circle cx="215" cy="185" r="11" fill="#047857" opacity="0.9"/>
  <!-- Lines connecting to bar chart on right -->
  <line x1="340" y1="80" x2="340" y2="210" stroke="#34d399" stroke-width="1" opacity="0.2"/>
  <!-- Bar chart - poverty index per region -->
  <rect x="350" y="180" width="22" height="30" rx="3" fill="#34d399" opacity="0.7"/>
  <rect x="380" y="155" width="22" height="55" rx="3" fill="#10b981" opacity="0.75"/>
  <rect x="410" y="130" width="22" height="80" rx="3" fill="#059669" opacity="0.8"/>
  <rect x="440" y="110" width="22" height="100" rx="3" fill="#047857" opacity="0.85"/>
  <rect x="470" y="140" width="22" height="70" rx="3" fill="#065f46" opacity="0.9"/>
  <text x="361" y="222" font-family="Inter,sans-serif" font-size="8" fill="#6ee7b7" opacity="0.6" text-anchor="middle">R1</text>
  <text x="391" y="222" font-family="Inter,sans-serif" font-size="8" fill="#6ee7b7" opacity="0.6" text-anchor="middle">R2</text>
  <text x="421" y="222" font-family="Inter,sans-serif" font-size="8" fill="#6ee7b7" opacity="0.6" text-anchor="middle">R3</text>
  <text x="451" y="222" font-family="Inter,sans-serif" font-size="8" fill="#6ee7b7" opacity="0.6" text-anchor="middle">R4</text>
  <text x="481" y="222" font-family="Inter,sans-serif" font-size="8" fill="#6ee7b7" opacity="0.6" text-anchor="middle">R5</text>
  <text x="415" y="60" text-anchor="middle" font-family="Inter,sans-serif" font-size="10" fill="#6ee7b7" opacity="0.6" letter-spacing="1">ÍNDICE SINTÉTICO</text>
  <!-- Bottom bar -->
  <rect x="0" y="246" width="600" height="54" fill="rgba(2,20,15,0.9)"/>
  <text x="24" y="269" font-family="Inter,sans-serif" font-size="14" font-weight="700" fill="#f1f5f9">Índice de Pobreza Educativa · Perú</text>
  <text x="24" y="287" font-family="Inter,sans-serif" font-size="11" fill="#6ee7b7">R · ACM · Geoespacial · Datos ENAHO</text>
</svg>
